<?xml version="1.0" encoding="utf-8" standalone="no"?>
<!DOCTYPE svg PUBLIC "-//W3C//DTD SVG 1.1//EN"
  "http://www.w3.org/Graphics/SVG/1.1/DTD/svg11.dtd">
<svg xmlns:xlink="http://www.w3.org/1999/xlink" width="594.7545pt" height="448.142831pt" viewBox="0 0 594.7545 448.142831" xmlns="http://www.w3.org/2000/svg" version="1.1">
 <metadata>
  <rdf:RDF xmlns:dc="http://purl.org/dc/elements/1.1/" xmlns:cc="http://creativecommons.org/ns#" xmlns:rdf="http://www.w3.org/1999/02/22-rdf-syntax-ns#">
   <cc:Work>
    <dc:type rdf:resource="http://purl.org/dc/dcmitype/StillImage"/>
    <dc:format>image/svg+xml</dc:format>
   </cc:Work>
  </rdf:RDF>
 </metadata>
 <defs>
  <style type="text/css">*{stroke-linejoin: round; stroke-linecap: butt}</style>
 </defs>
 <g id="figure_1">
  <g id="patch_1">
   <path d="M 0 448.142831 
L 594.7545 448.142831 
L 594.7545 0 
L 0 0 
z
" style="fill: #ffffff"/>
  </g>
  <g id="text_1">
   <!-- Conservation and entropy in the nodal collision ODE -->
   <g style="fill: #253447" transform="translate(10.8 21.437813) scale(0.14 -0.14)">
    <defs>
     <path id="DejaVuSans-Bold-26" d="M 4288 256 
Q 3956 84 3597 -3 
Q 3238 -91 2847 -91 
Q 1681 -91 1000 561 
Q 319 1213 319 2328 
Q 319 3447 1000 4098 
Q 1681 4750 2847 4750 
Q 3238 4750 3597 4662 
Q 3956 4575 4288 4403 
L 4288 3438 
Q 3953 3666 3628 3772 
Q 3303 3878 2944 3878 
Q 2300 3878 1931 3465 
Q 1563 3053 1563 2328 
Q 1563 1606 1931 1193 
Q 2300 781 2944 781 
Q 3303 781 3628 887 
Q 3953 994 4288 1222 
L 4288 256 
z
" transform="scale(0.015625)"/>
     <path id="DejaVuSans-Bold-52" d="M 2203 2784 
Q 1831 2784 1636 2517 
Q 1441 2250 1441 1747 
Q 1441 1244 1636 976 
Q 1831 709 2203 709 
Q 2569 709 2762 976 
Q 2956 1244 2956 1747 
Q 2956 2250 2762 2517 
Q 2569 2784 2203 2784 
z
M 2203 3584 
Q 3106 3584 3614 3096 
Q 4122 2609 4122 1747 
Q 4122 884 3614 396 
Q 3106 -91 2203 -91 
Q 1297 -91 786 396 
Q 275 884 275 1747 
Q 275 2609 786 3096 
Q 1297 3584 2203 3584 
z
" transform="scale(0.015625)"/>
     <path id="DejaVuSans-Bold-51" d="M 4056 2131 
L 4056 0 
L 2931 0 
L 2931 347 
L 2931 1631 
Q 2931 2084 2911 2256 
Q 2891 2428 2841 2509 
Q 2775 2619 2662 2680 
Q 2550 2741 2406 2741 
Q 2056 2741 1856 2470 
Q 1656 2200 1656 1722 
L 1656 0 
L 538 0 
L 538 3500 
L 1656 3500 
L 1656 2988 
Q 1909 3294 2193 3439 
Q 2478 3584 2822 3584 
Q 3428 3584 3742 3212 
Q 4056 2841 4056 2131 
z
" transform="scale(0.015625)"/>
     <path id="DejaVuSans-Bold-56" d="M 3272 3391 
L 3272 2541 
Q 2913 2691 2578 2766 
Q 2244 2841 1947 2841 
Q 1628 2841 1473 2761 
Q 1319 2681 1319 2516 
Q 1319 2381 1436 2309 
Q 1553 2238 1856 2203 
L 2053 2175 
Q 2913 2066 3209 1816 
Q 3506 1566 3506 1031 
Q 3506 472 3093 190 
Q 2681 -91 1863 -91 
Q 1516 -91 1145 -36 
Q 775 19 384 128 
L 384 978 
Q 719 816 1070 734 
Q 1422 653 1784 653 
Q 2113 653 2278 743 
Q 2444 834 2444 1013 
Q 2444 1163 2330 1236 
Q 2216 1309 1875 1350 
L 1678 1375 
Q 931 1469 631 1722 
Q 331 1975 331 2491 
Q 331 3047 712 3315 
Q 1094 3584 1881 3584 
Q 2191 3584 2531 3537 
Q 2872 3491 3272 3391 
z
" transform="scale(0.015625)"/>
     <path id="DejaVuSans-Bold-48" d="M 4031 1759 
L 4031 1441 
L 1416 1441 
Q 1456 1047 1700 850 
Q 1944 653 2381 653 
Q 2734 653 3104 758 
Q 3475 863 3866 1075 
L 3866 213 
Q 3469 63 3072 -14 
Q 2675 -91 2278 -91 
Q 1328 -91 801 392 
Q 275 875 275 1747 
Q 275 2603 792 3093 
Q 1309 3584 2216 3584 
Q 3041 3584 3536 3087 
Q 4031 2591 4031 1759 
z
M 2881 2131 
Q 2881 2450 2695 2645 
Q 2509 2841 2209 2841 
Q 1884 2841 1681 2658 
Q 1478 2475 1428 2131 
L 2881 2131 
z
" transform="scale(0.015625)"/>
     <path id="DejaVuSans-Bold-55" d="M 3138 2547 
Q 2991 2616 2845 2648 
Q 2700 2681 2553 2681 
Q 2122 2681 1889 2404 
Q 1656 2128 1656 1613 
L 1656 0 
L 538 0 
L 538 3500 
L 1656 3500 
L 1656 2925 
Q 1872 3269 2151 3426 
Q 2431 3584 2822 3584 
Q 2878 3584 2943 3579 
Q 3009 3575 3134 3559 
L 3138 2547 
z
" transform="scale(0.015625)"/>
     <path id="DejaVuSans-Bold-59" d="M 97 3500 
L 1216 3500 
L 2088 1081 
L 2956 3500 
L 4078 3500 
L 2700 0 
L 1472 0 
L 97 3500 
z
" transform="scale(0.015625)"/>
     <path id="DejaVuSans-Bold-44" d="M 2106 1575 
Q 1756 1575 1579 1456 
Q 1403 1338 1403 1106 
Q 1403 894 1545 773 
Q 1688 653 1941 653 
Q 2256 653 2472 879 
Q 2688 1106 2688 1447 
L 2688 1575 
L 2106 1575 
z
M 3816 1997 
L 3816 0 
L 2688 0 
L 2688 519 
Q 2463 200 2181 54 
Q 1900 -91 1497 -91 
Q 953 -91 614 226 
Q 275 544 275 1050 
Q 275 1666 698 1953 
Q 1122 2241 2028 2241 
L 2688 2241 
L 2688 2328 
Q 2688 2594 2478 2717 
Q 2269 2841 1825 2841 
Q 1466 2841 1156 2769 
Q 847 2697 581 2553 
L 581 3406 
Q 941 3494 1303 3539 
Q 1666 3584 2028 3584 
Q 2975 3584 3395 3211 
Q 3816 2838 3816 1997 
z
" transform="scale(0.015625)"/>
     <path id="DejaVuSans-Bold-57" d="M 1759 4494 
L 1759 3500 
L 2913 3500 
L 2913 2700 
L 1759 2700 
L 1759 1216 
Q 1759 972 1856 886 
Q 1953 800 2241 800 
L 2816 800 
L 2816 0 
L 1856 0 
Q 1194 0 917 276 
Q 641 553 641 1216 
L 641 2700 
L 84 2700 
L 84 3500 
L 641 3500 
L 641 4494 
L 1759 4494 
z
" transform="scale(0.015625)"/>
     <path id="DejaVuSans-Bold-4c" d="M 538 3500 
L 1656 3500 
L 1656 0 
L 538 0 
L 538 3500 
z
M 538 4863 
L 1656 4863 
L 1656 3950 
L 538 3950 
L 538 4863 
z
" transform="scale(0.015625)"/>
     <path id="DejaVuSans-Bold-3" transform="scale(0.015625)"/>
     <path id="DejaVuSans-Bold-47" d="M 2919 2988 
L 2919 4863 
L 4044 4863 
L 4044 0 
L 2919 0 
L 2919 506 
Q 2688 197 2409 53 
Q 2131 -91 1766 -91 
Q 1119 -91 703 423 
Q 288 938 288 1747 
Q 288 2556 703 3070 
Q 1119 3584 1766 3584 
Q 2128 3584 2408 3439 
Q 2688 3294 2919 2988 
z
M 2181 722 
Q 2541 722 2730 984 
Q 2919 1247 2919 1747 
Q 2919 2247 2730 2509 
Q 2541 2772 2181 2772 
Q 1825 2772 1636 2509 
Q 1447 2247 1447 1747 
Q 1447 1247 1636 984 
Q 1825 722 2181 722 
z
" transform="scale(0.015625)"/>
     <path id="DejaVuSans-Bold-53" d="M 1656 506 
L 1656 -1331 
L 538 -1331 
L 538 3500 
L 1656 3500 
L 1656 2988 
Q 1888 3294 2169 3439 
Q 2450 3584 2816 3584 
Q 3463 3584 3878 3070 
Q 4294 2556 4294 1747 
Q 4294 938 3878 423 
Q 3463 -91 2816 -91 
Q 2450 -91 2169 54 
Q 1888 200 1656 506 
z
M 2400 2772 
Q 2041 2772 1848 2508 
Q 1656 2244 1656 1747 
Q 1656 1250 1848 986 
Q 2041 722 2400 722 
Q 2759 722 2948 984 
Q 3138 1247 3138 1747 
Q 3138 2247 2948 2509 
Q 2759 2772 2400 2772 
z
" transform="scale(0.015625)"/>
     <path id="DejaVuSans-Bold-5c" d="M 78 3500 
L 1197 3500 
L 2138 1125 
L 2938 3500 
L 4056 3500 
L 2584 -331 
Q 2363 -916 2067 -1148 
Q 1772 -1381 1288 -1381 
L 641 -1381 
L 641 -647 
L 991 -647 
Q 1275 -647 1404 -556 
Q 1534 -466 1606 -231 
L 1638 -134 
L 78 3500 
z
" transform="scale(0.015625)"/>
     <path id="DejaVuSans-Bold-4b" d="M 4056 2131 
L 4056 0 
L 2931 0 
L 2931 347 
L 2931 1625 
Q 2931 2084 2911 2256 
Q 2891 2428 2841 2509 
Q 2775 2619 2662 2680 
Q 2550 2741 2406 2741 
Q 2056 2741 1856 2470 
Q 1656 2200 1656 1722 
L 1656 0 
L 538 0 
L 538 4863 
L 1656 4863 
L 1656 2988 
Q 1909 3294 2193 3439 
Q 2478 3584 2822 3584 
Q 3428 3584 3742 3212 
Q 4056 2841 4056 2131 
z
" transform="scale(0.015625)"/>
     <path id="DejaVuSans-Bold-4f" d="M 538 4863 
L 1656 4863 
L 1656 0 
L 538 0 
L 538 4863 
z
" transform="scale(0.015625)"/>
     <path id="DejaVuSans-Bold-46" d="M 3366 3391 
L 3366 2478 
Q 3138 2634 2908 2709 
Q 2678 2784 2431 2784 
Q 1963 2784 1702 2511 
Q 1441 2238 1441 1747 
Q 1441 1256 1702 982 
Q 1963 709 2431 709 
Q 2694 709 2930 787 
Q 3166 866 3366 1019 
L 3366 103 
Q 3103 6 2833 -42 
Q 2563 -91 2291 -91 
Q 1344 -91 809 395 
Q 275 881 275 1747 
Q 275 2613 809 3098 
Q 1344 3584 2291 3584 
Q 2566 3584 2833 3536 
Q 3100 3488 3366 3391 
z
" transform="scale(0.015625)"/>
     <path id="DejaVuSans-Bold-32" d="M 2719 3878 
Q 2169 3878 1866 3472 
Q 1563 3066 1563 2328 
Q 1563 1594 1866 1187 
Q 2169 781 2719 781 
Q 3272 781 3575 1187 
Q 3878 1594 3878 2328 
Q 3878 3066 3575 3472 
Q 3272 3878 2719 3878 
z
M 2719 4750 
Q 3844 4750 4481 4106 
Q 5119 3463 5119 2328 
Q 5119 1197 4481 553 
Q 3844 -91 2719 -91 
Q 1597 -91 958 553 
Q 319 1197 319 2328 
Q 319 3463 958 4106 
Q 1597 4750 2719 4750 
z
" transform="scale(0.015625)"/>
     <path id="DejaVuSans-Bold-27" d="M 1791 3756 
L 1791 909 
L 2222 909 
Q 2959 909 3348 1275 
Q 3738 1641 3738 2338 
Q 3738 3031 3350 3393 
Q 2963 3756 2222 3756 
L 1791 3756 
z
M 588 4666 
L 1856 4666 
Q 2919 4666 3439 4514 
Q 3959 4363 4331 4000 
Q 4659 3684 4818 3271 
Q 4978 2859 4978 2338 
Q 4978 1809 4818 1395 
Q 4659 981 4331 666 
Q 3956 303 3431 151 
Q 2906 0 1856 0 
L 588 0 
L 588 4666 
z
" transform="scale(0.015625)"/>
     <path id="DejaVuSans-Bold-28" d="M 588 4666 
L 3834 4666 
L 3834 3756 
L 1791 3756 
L 1791 2888 
L 3713 2888 
L 3713 1978 
L 1791 1978 
L 1791 909 
L 3903 909 
L 3903 0 
L 588 0 
L 588 4666 
z
" transform="scale(0.015625)"/>
    </defs>
    <use xlink:href="#DejaVuSans-Bold-26"/>
    <use xlink:href="#DejaVuSans-Bold-52" transform="translate(73.390625 0)"/>
    <use xlink:href="#DejaVuSans-Bold-51" transform="translate(142.09375 0)"/>
    <use xlink:href="#DejaVuSans-Bold-56" transform="translate(213.28125 0)"/>
    <use xlink:href="#DejaVuSans-Bold-48" transform="translate(272.796875 0)"/>
    <use xlink:href="#DejaVuSans-Bold-55" transform="translate(340.625 0)"/>
    <use xlink:href="#DejaVuSans-Bold-59" transform="translate(389.9375 0)"/>
    <use xlink:href="#DejaVuSans-Bold-44" transform="translate(455.125 0)"/>
    <use xlink:href="#DejaVuSans-Bold-57" transform="translate(522.609375 0)"/>
    <use xlink:href="#DejaVuSans-Bold-4c" transform="translate(570.40625 0)"/>
    <use xlink:href="#DejaVuSans-Bold-52" transform="translate(604.6875 0)"/>
    <use xlink:href="#DejaVuSans-Bold-51" transform="translate(673.390625 0)"/>
    <use xlink:href="#DejaVuSans-Bold-3" transform="translate(744.578125 0)"/>
    <use xlink:href="#DejaVuSans-Bold-44" transform="translate(779.390625 0)"/>
    <use xlink:href="#DejaVuSans-Bold-51" transform="translate(846.875 0)"/>
    <use xlink:href="#DejaVuSans-Bold-47" transform="translate(918.0625 0)"/>
    <use xlink:href="#DejaVuSans-Bold-3" transform="translate(989.640625 0)"/>
    <use xlink:href="#DejaVuSans-Bold-48" transform="translate(1024.453125 0)"/>
    <use xlink:href="#DejaVuSans-Bold-51" transform="translate(1092.28125 0)"/>
    <use xlink:href="#DejaVuSans-Bold-57" transform="translate(1163.46875 0)"/>
    <use xlink:href="#DejaVuSans-Bold-55" transform="translate(1211.265625 0)"/>
    <use xlink:href="#DejaVuSans-Bold-52" transform="translate(1260.578125 0)"/>
    <use xlink:href="#DejaVuSans-Bold-53" transform="translate(1329.28125 0)"/>
    <use xlink:href="#DejaVuSans-Bold-5c" transform="translate(1400.859375 0)"/>
    <use xlink:href="#DejaVuSans-Bold-3" transform="translate(1466.046875 0)"/>
    <use xlink:href="#DejaVuSans-Bold-4c" transform="translate(1500.859375 0)"/>
    <use xlink:href="#DejaVuSans-Bold-51" transform="translate(1535.140625 0)"/>
    <use xlink:href="#DejaVuSans-Bold-3" transform="translate(1606.328125 0)"/>
    <use xlink:href="#DejaVuSans-Bold-57" transform="translate(1641.140625 0)"/>
    <use xlink:href="#DejaVuSans-Bold-4b" transform="translate(1688.9375 0)"/>
    <use xlink:href="#DejaVuSans-Bold-48" transform="translate(1760.125 0)"/>
    <use xlink:href="#DejaVuSans-Bold-3" transform="translate(1827.953125 0)"/>
    <use xlink:href="#DejaVuSans-Bold-51" transform="translate(1862.765625 0)"/>
    <use xlink:href="#DejaVuSans-Bold-52" transform="translate(1933.953125 0)"/>
    <use xlink:href="#DejaVuSans-Bold-47" transform="translate(2002.65625 0)"/>
    <use xlink:href="#DejaVuSans-Bold-44" transform="translate(2074.234375 0)"/>
    <use xlink:href="#DejaVuSans-Bold-4f" transform="translate(2141.71875 0)"/>
    <use xlink:href="#DejaVuSans-Bold-3" transform="translate(2176 0)"/>
    <use xlink:href="#DejaVuSans-Bold-46" transform="translate(2210.8125 0)"/>
    <use xlink:href="#DejaVuSans-Bold-52" transform="translate(2270.09375 0)"/>
    <use xlink:href="#DejaVuSans-Bold-4f" transform="translate(2338.796875 0)"/>
    <use xlink:href="#DejaVuSans-Bold-4f" transform="translate(2373.078125 0)"/>
    <use xlink:href="#DejaVuSans-Bold-4c" transform="translate(2407.359375 0)"/>
    <use xlink:href="#DejaVuSans-Bold-56" transform="translate(2441.640625 0)"/>
    <use xlink:href="#DejaVuSans-Bold-4c" transform="translate(2501.15625 0)"/>
    <use xlink:href="#DejaVuSans-Bold-52" transform="translate(2535.4375 0)"/>
    <use xlink:href="#DejaVuSans-Bold-51" transform="translate(2604.140625 0)"/>
    <use xlink:href="#DejaVuSans-Bold-3" transform="translate(2675.328125 0)"/>
    <use xlink:href="#DejaVuSans-Bold-32" transform="translate(2710.140625 0)"/>
    <use xlink:href="#DejaVuSans-Bold-27" transform="translate(2795.15625 0)"/>
    <use xlink:href="#DejaVuSans-Bold-28" transform="translate(2878.171875 0)"/>
   </g>
  </g>
  <g id="text_2">
   <!-- $n=w\odot f,\quad\ell=\log f,\quad\dfrac{dn}{dt}=-K(f)\ell$ -->
   <g style="fill: #253447" transform="translate(172.868 79.469812) scale(0.22 -0.22)">
    <defs>
     <path id="DejaVuSans-Oblique-51" d="M 3566 2113 
L 3156 0 
L 2578 0 
L 2988 2091 
Q 3016 2238 3031 2350 
Q 3047 2463 3047 2528 
Q 3047 2791 2881 2937 
Q 2716 3084 2419 3084 
Q 1956 3084 1622 2776 
Q 1288 2469 1184 1941 
L 800 0 
L 225 0 
L 903 3500 
L 1478 3500 
L 1363 2950 
Q 1603 3253 1940 3418 
Q 2278 3584 2650 3584 
Q 3113 3584 3367 3334 
Q 3622 3084 3622 2631 
Q 3622 2519 3608 2391 
Q 3594 2263 3566 2113 
z
" transform="scale(0.015625)"/>
     <path id="DejaVuSans-20" d="M 678 2906 
L 4684 2906 
L 4684 2381 
L 678 2381 
L 678 2906 
z
M 678 1631 
L 4684 1631 
L 4684 1100 
L 678 1100 
L 678 1631 
z
" transform="scale(0.015625)"/>
     <path id="DejaVuSans-Oblique-5a" d="M 544 3500 
L 1113 3500 
L 1259 684 
L 2566 3500 
L 3231 3500 
L 3425 684 
L 4666 3500 
L 5241 3500 
L 3641 0 
L 2969 0 
L 2797 2900 
L 1459 0 
L 781 0 
L 544 3500 
z
" transform="scale(0.015625)"/>
     <path id="DejaVuSans-d23" d="M 2350 2403 
L 3013 2403 
L 3013 1609 
L 2350 1609 
L 2350 2403 
z
M 3306 3522 
Q 3016 3644 2681 3644 
Q 2347 3644 2056 3522 
Q 1769 3400 1531 3163 
Q 1291 2922 1172 2634 
Q 1053 2347 1053 2006 
Q 1053 1675 1172 1387 
Q 1291 1100 1531 859 
Q 1769 622 2056 500 
Q 2347 378 2681 378 
Q 3016 378 3306 500 
Q 3594 622 3831 859 
Q 4072 1100 4190 1387 
Q 4309 1675 4309 2006 
Q 4309 2347 4190 2634 
Q 4072 2922 3831 3163 
Q 3594 3400 3306 3522 
z
M 1878 3956 
Q 2250 4113 2681 4113 
Q 3113 4113 3484 3956 
Q 3856 3800 4163 3494 
Q 4472 3184 4625 2813 
Q 4778 2444 4778 2006 
Q 4778 1578 4625 1206 
Q 4472 838 4163 528 
Q 3856 222 3484 65 
Q 3113 -91 2681 -91 
Q 2250 -91 1878 65 
Q 1506 222 1200 528 
Q 891 838 738 1206 
Q 584 1578 584 2006 
Q 584 2444 738 2813 
Q 891 3184 1200 3494 
Q 1506 3800 1878 3956 
z
" transform="scale(0.015625)"/>
     <path id="DejaVuSans-Oblique-49" d="M 3059 4863 
L 2969 4384 
L 2419 4384 
Q 2106 4384 1964 4261 
Q 1822 4138 1753 3809 
L 1691 3500 
L 2638 3500 
L 2553 3053 
L 1606 3053 
L 1013 0 
L 434 0 
L 1031 3053 
L 481 3053 
L 563 3500 
L 1113 3500 
L 1159 3744 
Q 1278 4363 1576 4613 
Q 1875 4863 2516 4863 
L 3059 4863 
z
" transform="scale(0.015625)"/>
     <path id="DejaVuSans-f" d="M 750 794 
L 1409 794 
L 1409 256 
L 897 -744 
L 494 -744 
L 750 256 
L 750 794 
z
" transform="scale(0.015625)"/>
     <path id="DejaVuSans-Oblique-ab2" d="M 950 838 
Q 1078 213 1350 213 
Q 1531 213 1766 572 
L 2181 572 
Q 1994 253 1775 88 
Q 1538 -91 1319 -91 
Q 831 -91 634 344 
L 400 0 
L -88 0 
Q 250 459 500 888 
Q 469 1131 469 1397 
Q 469 1872 566 2347 
Q 931 4131 1256 4497 
Q 1481 4750 1866 4750 
Q 2256 4750 2256 4209 
Q 2253 3966 2197 3675 
Q 1972 2484 950 838 
z
M 947 1656 
Q 1531 2744 1709 3613 
Q 1803 4072 1803 4191 
Q 1803 4406 1725 4406 
Q 1384 4134 1081 2516 
Q 997 2063 947 1656 
z
" transform="scale(0.015625)"/>
     <path id="DejaVuSans-4f" d="M 603 4863 
L 1178 4863 
L 1178 0 
L 603 0 
L 603 4863 
z
" transform="scale(0.015625)"/>
     <path id="DejaVuSans-52" d="M 1959 3097 
Q 1497 3097 1228 2736 
Q 959 2375 959 1747 
Q 959 1119 1226 758 
Q 1494 397 1959 397 
Q 2419 397 2687 759 
Q 2956 1122 2956 1747 
Q 2956 2369 2687 2733 
Q 2419 3097 1959 3097 
z
M 1959 3584 
Q 2709 3584 3137 3096 
Q 3566 2609 3566 1747 
Q 3566 888 3137 398 
Q 2709 -91 1959 -91 
Q 1206 -91 779 398 
Q 353 888 353 1747 
Q 353 2609 779 3096 
Q 1206 3584 1959 3584 
z
" transform="scale(0.015625)"/>
     <path id="DejaVuSans-4a" d="M 2906 1791 
Q 2906 2416 2648 2759 
Q 2391 3103 1925 3103 
Q 1463 3103 1205 2759 
Q 947 2416 947 1791 
Q 947 1169 1205 825 
Q 1463 481 1925 481 
Q 2391 481 2648 825 
Q 2906 1169 2906 1791 
z
M 3481 434 
Q 3481 -459 3084 -895 
Q 2688 -1331 1869 -1331 
Q 1566 -1331 1297 -1286 
Q 1028 -1241 775 -1147 
L 775 -588 
Q 1028 -725 1275 -790 
Q 1522 -856 1778 -856 
Q 2344 -856 2625 -561 
Q 2906 -266 2906 331 
L 2906 616 
Q 2728 306 2450 153 
Q 2172 0 1784 0 
Q 1141 0 747 490 
Q 353 981 353 1791 
Q 353 2603 747 3093 
Q 1141 3584 1784 3584 
Q 2172 3584 2450 3431 
Q 2728 3278 2906 2969 
L 2906 3500 
L 3481 3500 
L 3481 434 
z
" transform="scale(0.015625)"/>
     <path id="DejaVuSans-Oblique-47" d="M 2675 525 
Q 2444 222 2128 65 
Q 1813 -91 1428 -91 
Q 903 -91 598 267 
Q 294 625 294 1247 
Q 294 1766 478 2236 
Q 663 2706 1013 3078 
Q 1244 3325 1534 3454 
Q 1825 3584 2144 3584 
Q 2481 3584 2739 3421 
Q 2997 3259 3138 2956 
L 3513 4863 
L 4091 4863 
L 3144 0 
L 2566 0 
L 2675 525 
z
M 891 1350 
Q 891 897 1095 644 
Q 1300 391 1663 391 
Q 1931 391 2161 520 
Q 2391 650 2566 903 
Q 2750 1166 2856 1509 
Q 2963 1853 2963 2188 
Q 2963 2622 2758 2865 
Q 2553 3109 2194 3109 
Q 1922 3109 1687 2981 
Q 1453 2853 1288 2613 
Q 1106 2353 998 2009 
Q 891 1666 891 1350 
z
" transform="scale(0.015625)"/>
     <path id="DejaVuSans-Oblique-57" d="M 2706 3500 
L 2619 3053 
L 1472 3053 
L 1100 1153 
Q 1081 1047 1072 975 
Q 1063 903 1063 863 
Q 1063 663 1183 572 
Q 1303 481 1569 481 
L 2150 481 
L 2053 0 
L 1503 0 
Q 991 0 739 200 
Q 488 400 488 806 
Q 488 878 497 964 
Q 506 1050 525 1153 
L 897 3053 
L 409 3053 
L 500 3500 
L 978 3500 
L 1172 4494 
L 1747 4494 
L 1556 3500 
L 2706 3500 
z
" transform="scale(0.015625)"/>
     <path id="DejaVuSans-c9c" d="M 678 2272 
L 4684 2272 
L 4684 1741 
L 678 1741 
L 678 2272 
z
" transform="scale(0.015625)"/>
     <path id="DejaVuSans-Oblique-2e" d="M 1081 4666 
L 1716 4666 
L 1331 2700 
L 3781 4666 
L 4622 4666 
L 1850 2438 
L 3878 0 
L 3109 0 
L 1247 2272 
L 806 0 
L 172 0 
L 1081 4666 
z
" transform="scale(0.015625)"/>
     <path id="DejaVuSans-b" d="M 1984 4856 
Q 1566 4138 1362 3434 
Q 1159 2731 1159 2009 
Q 1159 1288 1364 580 
Q 1569 -128 1984 -844 
L 1484 -844 
Q 1016 -109 783 600 
Q 550 1309 550 2009 
Q 550 2706 781 3412 
Q 1013 4119 1484 4856 
L 1984 4856 
z
" transform="scale(0.015625)"/>
     <path id="DejaVuSans-c" d="M 513 4856 
L 1013 4856 
Q 1481 4119 1714 3412 
Q 1947 2706 1947 2009 
Q 1947 1309 1714 600 
Q 1481 -109 1013 -844 
L 513 -844 
Q 928 -128 1133 580 
Q 1338 1288 1338 2009 
Q 1338 2731 1133 3434 
Q 928 4138 513 4856 
z
" transform="scale(0.015625)"/>
    </defs>
    <use xlink:href="#DejaVuSans-Oblique-51" transform="translate(0 0.31543)"/>
    <use xlink:href="#DejaVuSans-20" transform="translate(82.861328 0.31543)"/>
    <use xlink:href="#DejaVuSans-Oblique-5a" transform="translate(186.132812 0.31543)"/>
    <use xlink:href="#DejaVuSans-d23" transform="translate(287.402344 0.31543)"/>
    <use xlink:href="#DejaVuSans-Oblique-49" transform="translate(390.673828 0.31543)"/>
    <use xlink:href="#DejaVuSans-f" transform="translate(425.878906 0.31543)"/>
    <use xlink:href="#DejaVuSans-Oblique-ab2" transform="translate(574.560547 0.31543)"/>
    <use xlink:href="#DejaVuSans-20" transform="translate(635.351562 0.31543)"/>
    <use xlink:href="#DejaVuSans-4f" transform="translate(738.623047 0.31543)"/>
    <use xlink:href="#DejaVuSans-52" transform="translate(766.40625 0.31543)"/>
    <use xlink:href="#DejaVuSans-4a" transform="translate(827.587891 0.31543)"/>
    <use xlink:href="#DejaVuSans-Oblique-49" transform="translate(907.300129 0.31543)"/>
    <use xlink:href="#DejaVuSans-f" transform="translate(942.505208 0.31543)"/>
    <use xlink:href="#DejaVuSans-Oblique-47" transform="translate(1097.436848 75.015625)"/>
    <use xlink:href="#DejaVuSans-Oblique-51" transform="translate(1160.913411 75.015625)"/>
    <use xlink:href="#DejaVuSans-Oblique-47" transform="translate(1109.436848 -75.284668)"/>
    <use xlink:href="#DejaVuSans-Oblique-57" transform="translate(1172.913411 -75.284668)"/>
    <use xlink:href="#DejaVuSans-20" transform="translate(1250.024739 0.31543)"/>
    <use xlink:href="#DejaVuSans-c9c" transform="translate(1353.296223 0.31543)"/>
    <use xlink:href="#DejaVuSans-Oblique-2e" transform="translate(1437.085286 0.31543)"/>
    <use xlink:href="#DejaVuSans-b" transform="translate(1502.661458 0.31543)"/>
    <use xlink:href="#DejaVuSans-Oblique-49" transform="translate(1541.675129 0.31543)"/>
    <use xlink:href="#DejaVuSans-c" transform="translate(1576.880208 0.31543)"/>
    <use xlink:href="#DejaVuSans-Oblique-ab2" transform="translate(1615.893879 0.31543)"/>
    <path d="M 1097.436848 22.19043 
L 1097.436848 28.44043 
L 1224.292317 28.44043 
L 1224.292317 22.19043 
L 1097.436848 22.19043 
z
"/>
   </g>
  </g>
  <g id="text_3">
   <!-- $K(f)\mathbf{1}=K(f)E=K(f)\chi_a=0$ -->
   <g style="fill: #253447" transform="translate(222.588 146.429812) scale(0.22 -0.22)">
    <defs>
     <path id="DejaVuSans-Bold-14" d="M 750 831 
L 1813 831 
L 1813 3847 
L 722 3622 
L 722 4441 
L 1806 4666 
L 2950 4666 
L 2950 831 
L 4013 831 
L 4013 0 
L 750 0 
L 750 831 
z
" transform="scale(0.015625)"/>
     <path id="DejaVuSans-Oblique-28" d="M 1081 4666 
L 4031 4666 
L 3928 4134 
L 1606 4134 
L 1338 2753 
L 3566 2753 
L 3463 2222 
L 1234 2222 
L 909 531 
L 3284 531 
L 3181 0 
L 172 0 
L 1081 4666 
z
" transform="scale(0.015625)"/>
     <path id="DejaVuSans-Oblique-35b" d="M 1922 -781 
L 1691 416 
L 394 -1334 
L -284 -1334 
L 1553 1141 
L 1269 2613 
Q 1194 3006 713 3006 
L 559 3006 
L 653 3500 
L 872 3494 
Q 1675 3472 1775 2950 
L 2006 1753 
L 3303 3503 
L 3981 3503 
L 2144 1028 
L 2428 -444 
Q 2503 -838 2984 -838 
L 3138 -838 
L 3044 -1331 
L 2825 -1325 
Q 2022 -1303 1922 -781 
z
" transform="scale(0.015625)"/>
     <path id="DejaVuSans-Oblique-44" d="M 3438 1997 
L 3047 0 
L 2472 0 
L 2578 531 
Q 2325 219 2001 64 
Q 1678 -91 1281 -91 
Q 834 -91 548 182 
Q 263 456 263 884 
Q 263 1497 752 1853 
Q 1241 2209 2100 2209 
L 2900 2209 
L 2931 2363 
Q 2938 2388 2941 2417 
Q 2944 2447 2944 2509 
Q 2944 2788 2717 2942 
Q 2491 3097 2081 3097 
Q 1800 3097 1504 3025 
Q 1209 2953 897 2809 
L 997 3341 
Q 1322 3463 1633 3523 
Q 1944 3584 2234 3584 
Q 2853 3584 3176 3315 
Q 3500 3047 3500 2534 
Q 3500 2431 3484 2292 
Q 3469 2153 3438 1997 
z
M 2816 1759 
L 2241 1759 
Q 1534 1759 1195 1570 
Q 856 1381 856 984 
Q 856 709 1029 553 
Q 1203 397 1509 397 
Q 1978 397 2328 733 
Q 2678 1069 2791 1631 
L 2816 1759 
z
" transform="scale(0.015625)"/>
     <path id="DejaVuSans-13" d="M 2034 4250 
Q 1547 4250 1301 3770 
Q 1056 3291 1056 2328 
Q 1056 1369 1301 889 
Q 1547 409 2034 409 
Q 2525 409 2770 889 
Q 3016 1369 3016 2328 
Q 3016 3291 2770 3770 
Q 2525 4250 2034 4250 
z
M 2034 4750 
Q 2819 4750 3233 4129 
Q 3647 3509 3647 2328 
Q 3647 1150 3233 529 
Q 2819 -91 2034 -91 
Q 1250 -91 836 529 
Q 422 1150 422 2328 
Q 422 3509 836 4129 
Q 1250 4750 2034 4750 
z
" transform="scale(0.015625)"/>
    </defs>
    <use xlink:href="#DejaVuSans-Oblique-2e" transform="translate(0 0.015625)"/>
    <use xlink:href="#DejaVuSans-b" transform="translate(65.576172 0.015625)"/>
    <use xlink:href="#DejaVuSans-Oblique-49" transform="translate(104.589844 0.015625)"/>
    <use xlink:href="#DejaVuSans-c" transform="translate(139.794922 0.015625)"/>
    <use xlink:href="#DejaVuSans-Bold-14" transform="translate(178.808594 0.015625)"/>
    <use xlink:href="#DejaVuSans-20" transform="translate(267.871094 0.015625)"/>
    <use xlink:href="#DejaVuSans-Oblique-2e" transform="translate(371.142578 0.015625)"/>
    <use xlink:href="#DejaVuSans-b" transform="translate(436.71875 0.015625)"/>
    <use xlink:href="#DejaVuSans-Oblique-49" transform="translate(475.732422 0.015625)"/>
    <use xlink:href="#DejaVuSans-c" transform="translate(510.9375 0.015625)"/>
    <use xlink:href="#DejaVuSans-Oblique-28" transform="translate(549.951172 0.015625)"/>
    <use xlink:href="#DejaVuSans-20" transform="translate(632.617188 0.015625)"/>
    <use xlink:href="#DejaVuSans-Oblique-2e" transform="translate(735.888672 0.015625)"/>
    <use xlink:href="#DejaVuSans-b" transform="translate(801.464844 0.015625)"/>
    <use xlink:href="#DejaVuSans-Oblique-49" transform="translate(840.478516 0.015625)"/>
    <use xlink:href="#DejaVuSans-c" transform="translate(875.683594 0.015625)"/>
    <use xlink:href="#DejaVuSans-Oblique-35b" transform="translate(914.697266 0.015625)"/>
    <use xlink:href="#DejaVuSans-Oblique-44" transform="translate(973.876953 -14.984326) scale(0.7)"/>
    <use xlink:href="#DejaVuSans-20" transform="translate(1038.989258 0.015625)"/>
    <use xlink:href="#DejaVuSans-13" transform="translate(1142.260742 0.015625)"/>
   </g>
  </g>
  <g id="text_4">
   <!-- $S=-\sum_i n_i\log f_i,\qquad\dfrac{dS}{dt}=\ell^{T}K(f)\ell\geq0$ -->
   <g style="fill: #253447" transform="translate(170.228 213.389812) scale(0.22 -0.22)">
    <defs>
     <path id="DejaVuSans-Oblique-36" d="M 3859 4513 
L 3738 3897 
Q 3422 4066 3111 4152 
Q 2800 4238 2509 4238 
Q 1944 4238 1609 3991 
Q 1275 3744 1275 3334 
Q 1275 3109 1398 2989 
Q 1522 2869 2034 2731 
L 2413 2638 
Q 3053 2472 3303 2217 
Q 3553 1963 3553 1503 
Q 3553 797 2998 353 
Q 2444 -91 1538 -91 
Q 1166 -91 791 -17 
Q 416 56 38 206 
L 166 856 
Q 513 641 861 531 
Q 1209 422 1556 422 
Q 2147 422 2503 684 
Q 2859 947 2859 1369 
Q 2859 1650 2717 1795 
Q 2575 1941 2106 2059 
L 1728 2156 
Q 1081 2325 845 2545 
Q 609 2766 609 3163 
Q 609 3859 1145 4304 
Q 1681 4750 2541 4750 
Q 2875 4750 3203 4690 
Q 3531 4631 3859 4513 
z
" transform="scale(0.015625)"/>
     <path id="DejaVuSansDisplay-10" d="M 244 6509 
L 5803 6509 
L 5803 5656 
L 1566 5656 
L 4534 2488 
L 1469 -888 
L 5919 -888 
L 5919 -1738 
L 109 -1738 
L 109 -1078 
L 3316 2463 
L 244 5728 
L 244 6509 
z
" transform="scale(0.015625)"/>
     <path id="DejaVuSans-Oblique-4c" d="M 1172 4863 
L 1747 4863 
L 1606 4134 
L 1031 4134 
L 1172 4863 
z
M 909 3500 
L 1484 3500 
L 800 0 
L 225 0 
L 909 3500 
z
" transform="scale(0.015625)"/>
     <path id="DejaVuSans-Oblique-37" d="M 378 4666 
L 4325 4666 
L 4225 4134 
L 2559 4134 
L 1759 0 
L 1125 0 
L 1925 4134 
L 275 4134 
L 378 4666 
z
" transform="scale(0.015625)"/>
     <path id="DejaVuSans-cef" d="M 678 3175 
L 678 3725 
L 4684 2578 
L 4684 2047 
L 678 897 
L 678 1453 
L 3681 2309 
L 678 3175 
z
M 4684 531 
L 4684 0 
L 678 0 
L 678 531 
L 4684 531 
z
" transform="scale(0.015625)"/>
    </defs>
    <use xlink:href="#DejaVuSans-Oblique-36" transform="translate(0 0.31543)"/>
    <use xlink:href="#DejaVuSans-20" transform="translate(82.958984 0.31543)"/>
    <use xlink:href="#DejaVuSans-c9c" transform="translate(186.230469 0.31543)"/>
    <use xlink:href="#DejaVuSansDisplay-10" transform="translate(270.019531 0.31543)"/>
    <use xlink:href="#DejaVuSans-Oblique-4c" transform="translate(307.019531 -98.779883) scale(0.7)"/>
    <use xlink:href="#DejaVuSans-Oblique-51" transform="translate(360.800781 0.31543)"/>
    <use xlink:href="#DejaVuSans-Oblique-4c" transform="translate(424.179688 -14.684521) scale(0.7)"/>
    <use xlink:href="#DejaVuSans-4f" transform="translate(446.362305 0.31543)"/>
    <use xlink:href="#DejaVuSans-52" transform="translate(474.145508 0.31543)"/>
    <use xlink:href="#DejaVuSans-4a" transform="translate(535.327148 0.31543)"/>
    <use xlink:href="#DejaVuSans-Oblique-49" transform="translate(615.039387 0.31543)"/>
    <use xlink:href="#DejaVuSans-Oblique-4c" transform="translate(650.244465 -14.684521) scale(0.7)"/>
    <use xlink:href="#DejaVuSans-f" transform="translate(672.427083 0.31543)"/>
    <use xlink:href="#DejaVuSans-Oblique-47" transform="translate(924.770833 75.015625)"/>
    <use xlink:href="#DejaVuSans-Oblique-36" transform="translate(988.247395 75.015625)"/>
    <use xlink:href="#DejaVuSans-Oblique-47" transform="translate(936.770833 -75.284668)"/>
    <use xlink:href="#DejaVuSans-Oblique-57" transform="translate(1000.247395 -75.284668)"/>
    <use xlink:href="#DejaVuSans-20" transform="translate(1077.456379 0.31543)"/>
    <use xlink:href="#DejaVuSans-Oblique-ab2" transform="translate(1180.727864 0.31543)"/>
    <use xlink:href="#DejaVuSans-Oblique-37" transform="translate(1229.236978 41.61543) scale(0.7)"/>
    <use xlink:href="#DejaVuSans-Oblique-2e" transform="translate(1274.730142 0.31543)"/>
    <use xlink:href="#DejaVuSans-b" transform="translate(1340.306314 0.31543)"/>
    <use xlink:href="#DejaVuSans-Oblique-49" transform="translate(1379.319986 0.31543)"/>
    <use xlink:href="#DejaVuSans-c" transform="translate(1414.525064 0.31543)"/>
    <use xlink:href="#DejaVuSans-Oblique-ab2" transform="translate(1453.538736 0.31543)"/>
    <use xlink:href="#DejaVuSans-cef" transform="translate(1514.329752 0.31543)"/>
    <use xlink:href="#DejaVuSans-13" transform="translate(1617.601236 0.31543)"/>
    <path d="M 924.770833 22.19043 
L 924.770833 28.44043 
L 1051.723958 28.44043 
L 1051.723958 22.19043 
L 924.770833 22.19043 
z
"/>
   </g>
  </g>
  <g id="text_5">
   <!-- Lagged entropy-variable step -->
   <g style="fill: #147d92" transform="translate(10.8 266.957812) scale(0.14 -0.14)">
    <defs>
     <path id="DejaVuSans-Bold-2f" d="M 588 4666 
L 1791 4666 
L 1791 909 
L 3903 909 
L 3903 0 
L 588 0 
L 588 4666 
z
" transform="scale(0.015625)"/>
     <path id="DejaVuSans-Bold-4a" d="M 2919 594 
Q 2688 288 2409 144 
Q 2131 0 1766 0 
Q 1125 0 706 504 
Q 288 1009 288 1791 
Q 288 2575 706 3076 
Q 1125 3578 1766 3578 
Q 2131 3578 2409 3434 
Q 2688 3291 2919 2981 
L 2919 3500 
L 4044 3500 
L 4044 353 
Q 4044 -491 3511 -936 
Q 2978 -1381 1966 -1381 
Q 1638 -1381 1331 -1331 
Q 1025 -1281 716 -1178 
L 716 -306 
Q 1009 -475 1290 -558 
Q 1572 -641 1856 -641 
Q 2406 -641 2662 -400 
Q 2919 -159 2919 353 
L 2919 594 
z
M 2181 2772 
Q 1834 2772 1640 2515 
Q 1447 2259 1447 1791 
Q 1447 1309 1634 1061 
Q 1822 813 2181 813 
Q 2531 813 2725 1069 
Q 2919 1325 2919 1791 
Q 2919 2259 2725 2515 
Q 2531 2772 2181 2772 
z
" transform="scale(0.015625)"/>
     <path id="DejaVuSans-Bold-10" d="M 347 2297 
L 2309 2297 
L 2309 1388 
L 347 1388 
L 347 2297 
z
" transform="scale(0.015625)"/>
     <path id="DejaVuSans-Bold-45" d="M 2400 722 
Q 2759 722 2948 984 
Q 3138 1247 3138 1747 
Q 3138 2247 2948 2509 
Q 2759 2772 2400 2772 
Q 2041 2772 1848 2508 
Q 1656 2244 1656 1747 
Q 1656 1250 1848 986 
Q 2041 722 2400 722 
z
M 1656 2988 
Q 1888 3294 2169 3439 
Q 2450 3584 2816 3584 
Q 3463 3584 3878 3070 
Q 4294 2556 4294 1747 
Q 4294 938 3878 423 
Q 3463 -91 2816 -91 
Q 2450 -91 2169 54 
Q 1888 200 1656 506 
L 1656 0 
L 538 0 
L 538 4863 
L 1656 4863 
L 1656 2988 
z
" transform="scale(0.015625)"/>
    </defs>
    <use xlink:href="#DejaVuSans-Bold-2f"/>
    <use xlink:href="#DejaVuSans-Bold-44" transform="translate(63.71875 0)"/>
    <use xlink:href="#DejaVuSans-Bold-4a" transform="translate(131.203125 0)"/>
    <use xlink:href="#DejaVuSans-Bold-4a" transform="translate(202.78125 0)"/>
    <use xlink:href="#DejaVuSans-Bold-48" transform="translate(274.359375 0)"/>
    <use xlink:href="#DejaVuSans-Bold-47" transform="translate(342.1875 0)"/>
    <use xlink:href="#DejaVuSans-Bold-3" transform="translate(413.765625 0)"/>
    <use xlink:href="#DejaVuSans-Bold-48" transform="translate(448.578125 0)"/>
    <use xlink:href="#DejaVuSans-Bold-51" transform="translate(516.40625 0)"/>
    <use xlink:href="#DejaVuSans-Bold-57" transform="translate(587.59375 0)"/>
    <use xlink:href="#DejaVuSans-Bold-55" transform="translate(635.390625 0)"/>
    <use xlink:href="#DejaVuSans-Bold-52" transform="translate(684.703125 0)"/>
    <use xlink:href="#DejaVuSans-Bold-53" transform="translate(753.40625 0)"/>
    <use xlink:href="#DejaVuSans-Bold-5c" transform="translate(824.984375 0)"/>
    <use xlink:href="#DejaVuSans-Bold-10" transform="translate(890.171875 0)"/>
    <use xlink:href="#DejaVuSans-Bold-59" transform="translate(931.671875 0)"/>
    <use xlink:href="#DejaVuSans-Bold-44" transform="translate(996.859375 0)"/>
    <use xlink:href="#DejaVuSans-Bold-55" transform="translate(1064.34375 0)"/>
    <use xlink:href="#DejaVuSans-Bold-4c" transform="translate(1113.65625 0)"/>
    <use xlink:href="#DejaVuSans-Bold-44" transform="translate(1147.9375 0)"/>
    <use xlink:href="#DejaVuSans-Bold-45" transform="translate(1215.421875 0)"/>
    <use xlink:href="#DejaVuSans-Bold-4f" transform="translate(1287 0)"/>
    <use xlink:href="#DejaVuSans-Bold-48" transform="translate(1321.28125 0)"/>
    <use xlink:href="#DejaVuSans-Bold-3" transform="translate(1389.109375 0)"/>
    <use xlink:href="#DejaVuSans-Bold-56" transform="translate(1423.921875 0)"/>
    <use xlink:href="#DejaVuSans-Bold-57" transform="translate(1483.4375 0)"/>
    <use xlink:href="#DejaVuSans-Bold-48" transform="translate(1531.234375 0)"/>
    <use xlink:href="#DejaVuSans-Bold-53" transform="translate(1599.0625 0)"/>
   </g>
  </g>
  <g id="text_6">
   <!-- $R(\ell)=w\odot(\exp\ell-f_{\rm old})+\Delta t\,K_{\rm old}\ell=0$ -->
   <g style="fill: #253447" transform="translate(171.393 320.525812) scale(0.21 -0.21)">
    <defs>
     <path id="DejaVuSans-Oblique-35" d="M 1613 4147 
L 1294 2491 
L 2106 2491 
Q 2584 2491 2879 2755 
Q 3175 3019 3175 3444 
Q 3175 3784 2976 3965 
Q 2778 4147 2406 4147 
L 1613 4147 
z
M 2772 2241 
Q 2972 2194 3105 2009 
Q 3238 1825 3413 1275 
L 3809 0 
L 3144 0 
L 2778 1197 
Q 2638 1659 2453 1815 
Q 2269 1972 1888 1972 
L 1191 1972 
L 806 0 
L 172 0 
L 1081 4666 
L 2503 4666 
Q 3150 4666 3495 4373 
Q 3841 4081 3841 3531 
Q 3841 3044 3547 2687 
Q 3253 2331 2772 2241 
z
" transform="scale(0.015625)"/>
     <path id="DejaVuSans-48" d="M 3597 1894 
L 3597 1613 
L 953 1613 
Q 991 1019 1311 708 
Q 1631 397 2203 397 
Q 2534 397 2845 478 
Q 3156 559 3463 722 
L 3463 178 
Q 3153 47 2828 -22 
Q 2503 -91 2169 -91 
Q 1331 -91 842 396 
Q 353 884 353 1716 
Q 353 2575 817 3079 
Q 1281 3584 2069 3584 
Q 2775 3584 3186 3129 
Q 3597 2675 3597 1894 
z
M 3022 2063 
Q 3016 2534 2758 2815 
Q 2500 3097 2075 3097 
Q 1594 3097 1305 2825 
Q 1016 2553 972 2059 
L 3022 2063 
z
" transform="scale(0.015625)"/>
     <path id="DejaVuSans-5b" d="M 3513 3500 
L 2247 1797 
L 3578 0 
L 2900 0 
L 1881 1375 
L 863 0 
L 184 0 
L 1544 1831 
L 300 3500 
L 978 3500 
L 1906 2253 
L 2834 3500 
L 3513 3500 
z
" transform="scale(0.015625)"/>
     <path id="DejaVuSans-53" d="M 1159 525 
L 1159 -1331 
L 581 -1331 
L 581 3500 
L 1159 3500 
L 1159 2969 
Q 1341 3281 1617 3432 
Q 1894 3584 2278 3584 
Q 2916 3584 3314 3078 
Q 3713 2572 3713 1747 
Q 3713 922 3314 415 
Q 2916 -91 2278 -91 
Q 1894 -91 1617 61 
Q 1341 213 1159 525 
z
M 3116 1747 
Q 3116 2381 2855 2742 
Q 2594 3103 2138 3103 
Q 1681 3103 1420 2742 
Q 1159 2381 1159 1747 
Q 1159 1113 1420 752 
Q 1681 391 2138 391 
Q 2594 391 2855 752 
Q 3116 1113 3116 1747 
z
" transform="scale(0.015625)"/>
     <path id="DejaVuSans-47" d="M 2906 2969 
L 2906 4863 
L 3481 4863 
L 3481 0 
L 2906 0 
L 2906 525 
Q 2725 213 2448 61 
Q 2172 -91 1784 -91 
Q 1150 -91 751 415 
Q 353 922 353 1747 
Q 353 2572 751 3078 
Q 1150 3584 1784 3584 
Q 2172 3584 2448 3432 
Q 2725 3281 2906 2969 
z
M 947 1747 
Q 947 1113 1208 752 
Q 1469 391 1925 391 
Q 2381 391 2643 752 
Q 2906 1113 2906 1747 
Q 2906 2381 2643 2742 
Q 2381 3103 1925 3103 
Q 1469 3103 1208 2742 
Q 947 2381 947 1747 
z
" transform="scale(0.015625)"/>
     <path id="DejaVuSans-e" d="M 2944 4013 
L 2944 2272 
L 4684 2272 
L 4684 1741 
L 2944 1741 
L 2944 0 
L 2419 0 
L 2419 1741 
L 678 1741 
L 678 2272 
L 2419 2272 
L 2419 4013 
L 2944 4013 
z
" transform="scale(0.015625)"/>
     <path id="DejaVuSans-329" d="M 2188 4044 
L 906 525 
L 3472 525 
L 2188 4044 
z
M 50 0 
L 1831 4666 
L 2547 4666 
L 4325 0 
L 50 0 
z
" transform="scale(0.015625)"/>
    </defs>
    <use xlink:href="#DejaVuSans-Oblique-35" transform="translate(0 0.015625)"/>
    <use xlink:href="#DejaVuSans-b" transform="translate(69.482422 0.015625)"/>
    <use xlink:href="#DejaVuSans-Oblique-ab2" transform="translate(108.496094 0.015625)"/>
    <use xlink:href="#DejaVuSans-c" transform="translate(149.804688 0.015625)"/>
    <use xlink:href="#DejaVuSans-20" transform="translate(208.300781 0.015625)"/>
    <use xlink:href="#DejaVuSans-Oblique-5a" transform="translate(311.572266 0.015625)"/>
    <use xlink:href="#DejaVuSans-d23" transform="translate(412.841797 0.015625)"/>
    <use xlink:href="#DejaVuSans-b" transform="translate(516.113281 0.015625)"/>
    <use xlink:href="#DejaVuSans-48" transform="translate(555.126953 0.015625)"/>
    <use xlink:href="#DejaVuSans-5b" transform="translate(614.650391 0.015625)"/>
    <use xlink:href="#DejaVuSans-53" transform="translate(673.830078 0.015625)"/>
    <use xlink:href="#DejaVuSans-Oblique-ab2" transform="translate(753.542317 0.015625)"/>
    <use xlink:href="#DejaVuSans-c9c" transform="translate(814.333333 0.015625)"/>
    <use xlink:href="#DejaVuSans-Oblique-49" transform="translate(917.604817 0.015625)"/>
    <use xlink:href="#DejaVuSans-52" transform="translate(952.809895 -14.984326) scale(0.7)"/>
    <use xlink:href="#DejaVuSans-4f" transform="translate(995.637043 -14.984326) scale(0.7)"/>
    <use xlink:href="#DejaVuSans-47" transform="translate(1015.085286 -14.984326) scale(0.7)"/>
    <use xlink:href="#DejaVuSans-c" transform="translate(1062.253254 0.015625)"/>
    <use xlink:href="#DejaVuSans-e" transform="translate(1120.749348 0.015625)"/>
    <use xlink:href="#DejaVuSans-329" transform="translate(1224.020833 0.015625)"/>
    <use xlink:href="#DejaVuSans-Oblique-57" transform="translate(1292.429036 0.015625)"/>
    <use xlink:href="#DejaVuSans-Oblique-2e" transform="translate(1347.873696 0.015625)"/>
    <use xlink:href="#DejaVuSans-52" transform="translate(1413.449868 -14.984326) scale(0.7)"/>
    <use xlink:href="#DejaVuSans-4f" transform="translate(1456.277017 -14.984326) scale(0.7)"/>
    <use xlink:href="#DejaVuSans-47" transform="translate(1475.725259 -14.984326) scale(0.7)"/>
    <use xlink:href="#DejaVuSans-Oblique-ab2" transform="translate(1522.893228 0.015625)"/>
    <use xlink:href="#DejaVuSans-20" transform="translate(1583.684243 0.015625)"/>
    <use xlink:href="#DejaVuSans-13" transform="translate(1686.955728 0.015625)"/>
   </g>
  </g>
  <g id="text_7">
   <!-- $H(\ell)=\mathrm{diag}(w\odot\exp\ell)+\Delta t\,K_{\rm old}$ -->
   <g style="fill: #253447" transform="translate(192.668 387.485812) scale(0.22 -0.22)">
    <defs>
     <path id="DejaVuSans-Oblique-2b" d="M 1081 4666 
L 1716 4666 
L 1344 2753 
L 3634 2753 
L 4006 4666 
L 4641 4666 
L 3731 0 
L 3097 0 
L 3531 2222 
L 1241 2222 
L 806 0 
L 172 0 
L 1081 4666 
z
" transform="scale(0.015625)"/>
     <path id="DejaVuSans-4c" d="M 603 3500 
L 1178 3500 
L 1178 0 
L 603 0 
L 603 3500 
z
M 603 4863 
L 1178 4863 
L 1178 4134 
L 603 4134 
L 603 4863 
z
" transform="scale(0.015625)"/>
     <path id="DejaVuSans-44" d="M 2194 1759 
Q 1497 1759 1228 1600 
Q 959 1441 959 1056 
Q 959 750 1161 570 
Q 1363 391 1709 391 
Q 2188 391 2477 730 
Q 2766 1069 2766 1631 
L 2766 1759 
L 2194 1759 
z
M 3341 1997 
L 3341 0 
L 2766 0 
L 2766 531 
Q 2569 213 2275 61 
Q 1981 -91 1556 -91 
Q 1019 -91 701 211 
Q 384 513 384 1019 
Q 384 1609 779 1909 
Q 1175 2209 1959 2209 
L 2766 2209 
L 2766 2266 
Q 2766 2663 2505 2880 
Q 2244 3097 1772 3097 
Q 1472 3097 1187 3025 
Q 903 2953 641 2809 
L 641 3341 
Q 956 3463 1253 3523 
Q 1550 3584 1831 3584 
Q 2591 3584 2966 3190 
Q 3341 2797 3341 1997 
z
" transform="scale(0.015625)"/>
    </defs>
    <use xlink:href="#DejaVuSans-Oblique-2b" transform="translate(0 0.015625)"/>
    <use xlink:href="#DejaVuSans-b" transform="translate(75.195312 0.015625)"/>
    <use xlink:href="#DejaVuSans-Oblique-ab2" transform="translate(114.208984 0.015625)"/>
    <use xlink:href="#DejaVuSans-c" transform="translate(155.517578 0.015625)"/>
    <use xlink:href="#DejaVuSans-20" transform="translate(214.013672 0.015625)"/>
    <use xlink:href="#DejaVuSans-47" transform="translate(317.285156 0.015625)"/>
    <use xlink:href="#DejaVuSans-4c" transform="translate(380.761719 0.015625)"/>
    <use xlink:href="#DejaVuSans-44" transform="translate(408.544922 0.015625)"/>
    <use xlink:href="#DejaVuSans-4a" transform="translate(469.824219 0.015625)"/>
    <use xlink:href="#DejaVuSans-b" transform="translate(533.300781 0.015625)"/>
    <use xlink:href="#DejaVuSans-Oblique-5a" transform="translate(572.314453 0.015625)"/>
    <use xlink:href="#DejaVuSans-d23" transform="translate(673.583984 0.015625)"/>
    <use xlink:href="#DejaVuSans-48" transform="translate(776.855469 0.015625)"/>
    <use xlink:href="#DejaVuSans-5b" transform="translate(836.378906 0.015625)"/>
    <use xlink:href="#DejaVuSans-53" transform="translate(895.558594 0.015625)"/>
    <use xlink:href="#DejaVuSans-Oblique-ab2" transform="translate(975.270833 0.015625)"/>
    <use xlink:href="#DejaVuSans-c" transform="translate(1016.579426 0.015625)"/>
    <use xlink:href="#DejaVuSans-e" transform="translate(1075.07552 0.015625)"/>
    <use xlink:href="#DejaVuSans-329" transform="translate(1178.347004 0.015625)"/>
    <use xlink:href="#DejaVuSans-Oblique-57" transform="translate(1246.755208 0.015625)"/>
    <use xlink:href="#DejaVuSans-Oblique-2e" transform="translate(1302.199868 0.015625)"/>
    <use xlink:href="#DejaVuSans-52" transform="translate(1367.77604 -14.984326) scale(0.7)"/>
    <use xlink:href="#DejaVuSans-4f" transform="translate(1410.603188 -14.984326) scale(0.7)"/>
    <use xlink:href="#DejaVuSans-47" transform="translate(1430.051431 -14.984326) scale(0.7)"/>
   </g>
  </g>
  <g id="text_8">
   <!-- $K_{\rm old}=K(f_{\rm old})$ -->
   <g style="fill: #253447" transform="translate(10.8 433.018612) scale(0.18 -0.18)">
    <use xlink:href="#DejaVuSans-Oblique-2e" transform="translate(0 0.015625)"/>
    <use xlink:href="#DejaVuSans-52" transform="translate(65.576172 -14.984326) scale(0.7)"/>
    <use xlink:href="#DejaVuSans-4f" transform="translate(108.40332 -14.984326) scale(0.7)"/>
    <use xlink:href="#DejaVuSans-47" transform="translate(127.851562 -14.984326) scale(0.7)"/>
    <use xlink:href="#DejaVuSans-20" transform="translate(194.501953 0.015625)"/>
    <use xlink:href="#DejaVuSans-Oblique-2e" transform="translate(297.773438 0.015625)"/>
    <use xlink:href="#DejaVuSans-b" transform="translate(363.349609 0.015625)"/>
    <use xlink:href="#DejaVuSans-Oblique-49" transform="translate(402.363281 0.015625)"/>
    <use xlink:href="#DejaVuSans-52" transform="translate(437.568359 -14.984326) scale(0.7)"/>
    <use xlink:href="#DejaVuSans-4f" transform="translate(480.395508 -14.984326) scale(0.7)"/>
    <use xlink:href="#DejaVuSans-47" transform="translate(499.84375 -14.984326) scale(0.7)"/>
    <use xlink:href="#DejaVuSans-c" transform="translate(547.011719 0.015625)"/>
   </g>
  </g>
  <g id="text_9">
   <!-- E: discrete energy; χₐ: resolved μ-bin indicator. -->
   <g style="fill: #253447" transform="translate(302.832 429.893812) scale(0.12 -0.12)">
    <defs>
     <path id="DejaVuSans-28" d="M 628 4666 
L 3578 4666 
L 3578 4134 
L 1259 4134 
L 1259 2753 
L 3481 2753 
L 3481 2222 
L 1259 2222 
L 1259 531 
L 3634 531 
L 3634 0 
L 628 0 
L 628 4666 
z
" transform="scale(0.015625)"/>
     <path id="DejaVuSans-1d" d="M 750 794 
L 1409 794 
L 1409 0 
L 750 0 
L 750 794 
z
M 750 3309 
L 1409 3309 
L 1409 2516 
L 750 2516 
L 750 3309 
z
" transform="scale(0.015625)"/>
     <path id="DejaVuSans-3" transform="scale(0.015625)"/>
     <path id="DejaVuSans-56" d="M 2834 3397 
L 2834 2853 
Q 2591 2978 2328 3040 
Q 2066 3103 1784 3103 
Q 1356 3103 1142 2972 
Q 928 2841 928 2578 
Q 928 2378 1081 2264 
Q 1234 2150 1697 2047 
L 1894 2003 
Q 2506 1872 2764 1633 
Q 3022 1394 3022 966 
Q 3022 478 2636 193 
Q 2250 -91 1575 -91 
Q 1294 -91 989 -36 
Q 684 19 347 128 
L 347 722 
Q 666 556 975 473 
Q 1284 391 1588 391 
Q 1994 391 2212 530 
Q 2431 669 2431 922 
Q 2431 1156 2273 1281 
Q 2116 1406 1581 1522 
L 1381 1569 
Q 847 1681 609 1914 
Q 372 2147 372 2553 
Q 372 3047 722 3315 
Q 1072 3584 1716 3584 
Q 2034 3584 2315 3537 
Q 2597 3491 2834 3397 
z
" transform="scale(0.015625)"/>
     <path id="DejaVuSans-46" d="M 3122 3366 
L 3122 2828 
Q 2878 2963 2633 3030 
Q 2388 3097 2138 3097 
Q 1578 3097 1268 2742 
Q 959 2388 959 1747 
Q 959 1106 1268 751 
Q 1578 397 2138 397 
Q 2388 397 2633 464 
Q 2878 531 3122 666 
L 3122 134 
Q 2881 22 2623 -34 
Q 2366 -91 2075 -91 
Q 1284 -91 818 406 
Q 353 903 353 1747 
Q 353 2603 823 3093 
Q 1294 3584 2113 3584 
Q 2378 3584 2631 3529 
Q 2884 3475 3122 3366 
z
" transform="scale(0.015625)"/>
     <path id="DejaVuSans-55" d="M 2631 2963 
Q 2534 3019 2420 3045 
Q 2306 3072 2169 3072 
Q 1681 3072 1420 2755 
Q 1159 2438 1159 1844 
L 1159 0 
L 581 0 
L 581 3500 
L 1159 3500 
L 1159 2956 
Q 1341 3275 1631 3429 
Q 1922 3584 2338 3584 
Q 2397 3584 2469 3576 
Q 2541 3569 2628 3553 
L 2631 2963 
z
" transform="scale(0.015625)"/>
     <path id="DejaVuSans-57" d="M 1172 4494 
L 1172 3500 
L 2356 3500 
L 2356 3053 
L 1172 3053 
L 1172 1153 
Q 1172 725 1289 603 
Q 1406 481 1766 481 
L 2356 481 
L 2356 0 
L 1766 0 
Q 1100 0 847 248 
Q 594 497 594 1153 
L 594 3053 
L 172 3053 
L 172 3500 
L 594 3500 
L 594 4494 
L 1172 4494 
z
" transform="scale(0.015625)"/>
     <path id="DejaVuSans-51" d="M 3513 2113 
L 3513 0 
L 2938 0 
L 2938 2094 
Q 2938 2591 2744 2837 
Q 2550 3084 2163 3084 
Q 1697 3084 1428 2787 
Q 1159 2491 1159 1978 
L 1159 0 
L 581 0 
L 581 3500 
L 1159 3500 
L 1159 2956 
Q 1366 3272 1645 3428 
Q 1925 3584 2291 3584 
Q 2894 3584 3203 3211 
Q 3513 2838 3513 2113 
z
" transform="scale(0.015625)"/>
     <path id="DejaVuSans-5c" d="M 2059 -325 
Q 1816 -950 1584 -1140 
Q 1353 -1331 966 -1331 
L 506 -1331 
L 506 -850 
L 844 -850 
Q 1081 -850 1212 -737 
Q 1344 -625 1503 -206 
L 1606 56 
L 191 3500 
L 800 3500 
L 1894 763 
L 2988 3500 
L 3597 3500 
L 2059 -325 
z
" transform="scale(0.015625)"/>
     <path id="DejaVuSans-1e" d="M 750 3309 
L 1409 3309 
L 1409 2516 
L 750 2516 
L 750 3309 
z
M 750 794 
L 1409 794 
L 1409 256 
L 897 -744 
L 494 -744 
L 750 256 
L 750 794 
z
" transform="scale(0.015625)"/>
     <path id="DejaVuSans-35b" d="M 2288 -781 
L 1822 416 
L 863 -1334 
L 184 -1334 
L 1541 1141 
L 972 2613 
Q 819 3006 338 3006 
L 184 3006 
L 184 3500 
L 403 3494 
Q 1209 3472 1413 2950 
L 1875 1753 
L 2834 3503 
L 3513 3503 
L 2156 1028 
L 2725 -444 
Q 2878 -838 3359 -838 
L 3513 -838 
L 3513 -1331 
L 3294 -1325 
Q 2488 -1303 2288 -781 
z
" transform="scale(0.015625)"/>
     <path id="DejaVuSans-b6a" d="M 1381 984 
Q 944 984 775 896 
Q 603 806 603 590 
Q 603 418 731 318 
Q 859 218 1078 218 
Q 1378 218 1559 409 
Q 1744 600 1744 912 
L 1744 984 
L 1381 984 
z
M 2103 1118 
L 2103 0 
L 1744 0 
L 1744 296 
Q 1619 118 1434 34 
Q 1247 -50 981 -50 
Q 641 -50 441 118 
Q 241 287 241 571 
Q 241 900 491 1068 
Q 741 1237 1234 1237 
L 1744 1237 
L 1744 1268 
Q 1744 1490 1578 1612 
Q 1413 1734 1116 1734 
Q 928 1734 747 1693 
Q 569 1653 403 1571 
L 403 1871 
Q 603 1937 791 1971 
Q 975 2006 1153 2006 
Q 1631 2006 1869 1787 
Q 2103 1565 2103 1118 
z
" transform="scale(0.015625)"/>
     <path id="DejaVuSans-59" d="M 191 3500 
L 800 3500 
L 1894 563 
L 2988 3500 
L 3597 3500 
L 2284 0 
L 1503 0 
L 191 3500 
z
" transform="scale(0.015625)"/>
     <path id="DejaVuSans-350" d="M 544 -1331 
L 544 3500 
L 1119 3500 
L 1119 1325 
Q 1119 872 1334 640 
Q 1550 409 1972 409 
Q 2434 409 2667 671 
Q 2900 934 2900 1459 
L 2900 3500 
L 3475 3500 
L 3475 806 
Q 3475 619 3529 530 
Q 3584 441 3700 441 
Q 3728 441 3778 458 
Q 3828 475 3916 513 
L 3916 50 
Q 3788 -22 3673 -56 
Q 3559 -91 3450 -91 
Q 3234 -91 3106 31 
Q 2978 153 2931 403 
Q 2775 156 2548 32 
Q 2322 -91 2016 -91 
Q 1697 -91 1473 31 
Q 1250 153 1119 397 
L 1119 -1331 
L 544 -1331 
z
" transform="scale(0.015625)"/>
     <path id="DejaVuSans-10" d="M 313 2009 
L 1997 2009 
L 1997 1497 
L 313 1497 
L 313 2009 
z
" transform="scale(0.015625)"/>
     <path id="DejaVuSans-45" d="M 3116 1747 
Q 3116 2381 2855 2742 
Q 2594 3103 2138 3103 
Q 1681 3103 1420 2742 
Q 1159 2381 1159 1747 
Q 1159 1113 1420 752 
Q 1681 391 2138 391 
Q 2594 391 2855 752 
Q 3116 1113 3116 1747 
z
M 1159 2969 
Q 1341 3281 1617 3432 
Q 1894 3584 2278 3584 
Q 2916 3584 3314 3078 
Q 3713 2572 3713 1747 
Q 3713 922 3314 415 
Q 2916 -91 2278 -91 
Q 1894 -91 1617 61 
Q 1341 213 1159 525 
L 1159 0 
L 581 0 
L 581 4863 
L 1159 4863 
L 1159 2969 
z
" transform="scale(0.015625)"/>
     <path id="DejaVuSans-11" d="M 684 794 
L 1344 794 
L 1344 0 
L 684 0 
L 684 794 
z
" transform="scale(0.015625)"/>
    </defs>
    <use xlink:href="#DejaVuSans-28"/>
    <use xlink:href="#DejaVuSans-1d" transform="translate(63.1875 0)"/>
    <use xlink:href="#DejaVuSans-3" transform="translate(96.875 0)"/>
    <use xlink:href="#DejaVuSans-47" transform="translate(128.65625 0)"/>
    <use xlink:href="#DejaVuSans-4c" transform="translate(192.140625 0)"/>
    <use xlink:href="#DejaVuSans-56" transform="translate(219.921875 0)"/>
    <use xlink:href="#DejaVuSans-46" transform="translate(272.015625 0)"/>
    <use xlink:href="#DejaVuSans-55" transform="translate(327 0)"/>
    <use xlink:href="#DejaVuSans-48" transform="translate(365.90625 0)"/>
    <use xlink:href="#DejaVuSans-57" transform="translate(427.4375 0)"/>
    <use xlink:href="#DejaVuSans-48" transform="translate(466.640625 0)"/>
    <use xlink:href="#DejaVuSans-3" transform="translate(528.171875 0)"/>
    <use xlink:href="#DejaVuSans-48" transform="translate(559.953125 0)"/>
    <use xlink:href="#DejaVuSans-51" transform="translate(621.484375 0)"/>
    <use xlink:href="#DejaVuSans-48" transform="translate(684.859375 0)"/>
    <use xlink:href="#DejaVuSans-55" transform="translate(746.390625 0)"/>
    <use xlink:href="#DejaVuSans-4a" transform="translate(785.75 0)"/>
    <use xlink:href="#DejaVuSans-5c" transform="translate(849.234375 0)"/>
    <use xlink:href="#DejaVuSans-1e" transform="translate(908.421875 0)"/>
    <use xlink:href="#DejaVuSans-3" transform="translate(942.109375 0)"/>
    <use xlink:href="#DejaVuSans-35b" transform="translate(973.890625 0)"/>
    <use xlink:href="#DejaVuSans-b6a" transform="translate(1031.65625 0)"/>
    <use xlink:href="#DejaVuSans-1d" transform="translate(1070.8125 0)"/>
    <use xlink:href="#DejaVuSans-3" transform="translate(1104.5 0)"/>
    <use xlink:href="#DejaVuSans-55" transform="translate(1136.28125 0)"/>
    <use xlink:href="#DejaVuSans-48" transform="translate(1175.1875 0)"/>
    <use xlink:href="#DejaVuSans-56" transform="translate(1236.71875 0)"/>
    <use xlink:href="#DejaVuSans-52" transform="translate(1288.8125 0)"/>
    <use xlink:href="#DejaVuSans-4f" transform="translate(1350 0)"/>
    <use xlink:href="#DejaVuSans-59" transform="translate(1377.78125 0)"/>
    <use xlink:href="#DejaVuSans-48" transform="translate(1436.96875 0)"/>
    <use xlink:href="#DejaVuSans-47" transform="translate(1498.5 0)"/>
    <use xlink:href="#DejaVuSans-3" transform="translate(1561.984375 0)"/>
    <use xlink:href="#DejaVuSans-350" transform="translate(1593.765625 0)"/>
    <use xlink:href="#DejaVuSans-10" transform="translate(1657.390625 0)"/>
    <use xlink:href="#DejaVuSans-45" transform="translate(1693.46875 0)"/>
    <use xlink:href="#DejaVuSans-4c" transform="translate(1756.953125 0)"/>
    <use xlink:href="#DejaVuSans-51" transform="translate(1784.734375 0)"/>
    <use xlink:href="#DejaVuSans-3" transform="translate(1848.109375 0)"/>
    <use xlink:href="#DejaVuSans-4c" transform="translate(1879.890625 0)"/>
    <use xlink:href="#DejaVuSans-51" transform="translate(1907.671875 0)"/>
    <use xlink:href="#DejaVuSans-47" transform="translate(1971.046875 0)"/>
    <use xlink:href="#DejaVuSans-4c" transform="translate(2034.53125 0)"/>
    <use xlink:href="#DejaVuSans-46" transform="translate(2062.3125 0)"/>
    <use xlink:href="#DejaVuSans-44" transform="translate(2117.296875 0)"/>
    <use xlink:href="#DejaVuSans-57" transform="translate(2178.578125 0)"/>
    <use xlink:href="#DejaVuSans-52" transform="translate(2217.78125 0)"/>
    <use xlink:href="#DejaVuSans-55" transform="translate(2278.96875 0)"/>
    <use xlink:href="#DejaVuSans-11" transform="translate(2310.90625 0)"/>
   </g>
  </g>
 </g>
</svg>
